# Blender v2.79 (sub 0) OBJ File: 'cube.blend'
# www.blender.org
mtllib 1.mtl
o Cube
v 1.000000 -1.000000 -1.000000
v 1.000000 -1.000000 1.000000
v -1.000000 -1.000000 1.000000
v -1.000000 -1.000000 -1.000000
v 1.000000 1.000000 -0.999999
v 0.999999 1.000000 1.000001
v -1.000000 1.000000 1.000000
v -1.000000 1.000000 -1.000000
vn 0.0000 -1.0000 0.0000
vn 0.0000 1.0000 0.0000
vn 1.0000 0.0000 0.0000
vn -0.0000 -0.0000 1.0000
vn -1.0000 -0.0000 -0.0000
vn 0.0000 0.0000 -1.0000
usemtl Material
s off
f 1//1 2//1 3//1 4//1
f 5//2 8//2 7//2 6//2
f 1//3 5//3 6//3 2//3
f 2//4 6//4 7//4 3//4
f 3//5 7//5 8//5 4//5
f 5//6 1//6 4//6 8//6
o Text.001_CUText.001
v -0.075106 -0.338594 1.074792
v -0.075106 0.427967 1.074792
v 0.060735 0.427967 1.074792
v 0.060735 -0.338594 1.074792
v -0.075106 -0.338594 1.002792
v -0.075106 0.427967 1.002792
v 0.060735 0.427967 1.002792
v 0.060735 -0.338594 1.002792
v -0.075106 -0.338594 1.002792
v -0.090106 -0.353594 1.017792
v -0.075106 0.427967 1.002792
v -0.090106 0.442967 1.017792
v 0.060735 0.427967 1.002792
v 0.075735 0.442967 1.017792
v 0.060735 -0.338594 1.002792
v 0.075735 -0.353594 1.017792
v -0.090106 -0.353594 1.017792
v -0.090106 -0.353594 1.059792
v -0.090106 0.442967 1.017792
v -0.090106 0.442967 1.059792
v 0.075735 0.442967 1.017792
v 0.075735 0.442967 1.059792
v 0.075735 -0.353594 1.017792
v 0.075735 -0.353594 1.059792
v -0.090106 -0.353594 1.059792
v -0.075106 -0.338594 1.074792
v -0.090106 0.442967 1.059792
v -0.075106 0.427967 1.074792
v 0.075735 0.442967 1.059792
v 0.060735 0.427967 1.074792
v 0.075735 -0.353594 1.059792
v 0.060735 -0.338594 1.074792
vn 0.0000 0.0000 1.0000
vn 0.0000 0.0000 -1.0000
vn -0.4082 -0.4082 -0.8165
vn -0.4082 0.4082 -0.8165
vn 0.4082 0.4082 -0.8165
vn 0.4082 -0.4082 -0.8165
vn -0.7071 -0.7071 0.0000
vn -0.7071 0.7071 0.0000
vn 0.7071 0.7071 0.0000
vn 0.7071 -0.7071 0.0000
vn -0.4082 -0.4082 0.8165
vn -0.4082 0.4082 0.8165
vn 0.4082 0.4082 0.8165
vn 0.4082 -0.4082 0.8165
usemtl Material.001
s off
f 9//7 11//7 10//7
f 9//7 12//7 11//7
f 15//8 13//8 14//8
f 16//8 13//8 15//8
s 1
f 18//9 20//10 19//10 17//9
f 20//10 22//11 21//11 19//10
f 22//11 24//12 23//12 21//11
f 24//12 18//9 17//9 23//12
f 26//13 28//14 27//14 25//13
f 28//14 30//15 29//15 27//14
f 30//15 32//16 31//16 29//15
f 32//16 26//13 25//13 31//16
f 34//17 36//18 35//18 33//17
f 36//18 38//19 37//19 35//18
f 38//19 40//20 39//20 37//19
f 40//20 34//17 33//17 39//20
o Text_CUText
v -0.069609 1.049550 0.397763
v -0.069609 1.049550 -0.368798
v 0.066233 1.049550 -0.368798
v 0.066233 1.049550 0.397763
v -0.069609 0.977550 0.397763
v -0.069609 0.977550 -0.368798
v 0.066233 0.977550 -0.368798
v 0.066233 0.977550 0.397763
v -0.069609 0.977550 0.397763
v -0.084609 0.992550 0.412763
v -0.069609 0.977550 -0.368798
v -0.084609 0.992550 -0.383798
v 0.066233 0.977550 -0.368798
v 0.081233 0.992550 -0.383798
v 0.066233 0.977550 0.397763
v 0.081233 0.992550 0.412763
v -0.084609 0.992550 0.412763
v -0.084609 1.034550 0.412763
v -0.084609 0.992550 -0.383798
v -0.084609 1.034550 -0.383798
v 0.081233 0.992550 -0.383798
v 0.081233 1.034550 -0.383798
v 0.081233 0.992550 0.412763
v 0.081233 1.034550 0.412763
v -0.084609 1.034550 0.412763
v -0.069609 1.049550 0.397763
v -0.084609 1.034550 -0.383798
v -0.069609 1.049550 -0.368798
v 0.081233 1.034550 -0.383798
v 0.066233 1.049550 -0.368798
v 0.081233 1.034550 0.412763
v 0.066233 1.049550 0.397763
vn 0.0000 1.0000 0.0000
vn 0.0000 -1.0000 0.0000
vn -0.4082 -0.8165 0.4082
vn -0.4082 -0.8165 -0.4082
vn 0.4082 -0.8165 -0.4082
vn 0.4082 -0.8165 0.4082
vn -0.7071 0.0000 0.7071
vn -0.7071 0.0000 -0.7071
vn 0.7071 0.0000 -0.7071
vn 0.7071 0.0000 0.7071
vn -0.4082 0.8165 0.4082
vn -0.4082 0.8165 -0.4082
vn 0.4082 0.8165 -0.4082
vn 0.4082 0.8165 0.4082
usemtl Material.001
s off
f 41//21 43//21 42//21
f 41//21 44//21 43//21
f 47//22 45//22 46//22
f 48//22 45//22 47//22
s 1
f 50//23 52//24 51//24 49//23
f 52//24 54//25 53//25 51//24
f 54//25 56//26 55//26 53//25
f 56//26 50//23 49//23 55//26
f 58//27 60//28 59//28 57//27
f 60//28 62//29 61//29 59//28
f 62//29 64//30 63//30 61//29
f 64//30 58//27 57//27 63//30
f 66//31 68//32 67//32 65//31
f 68//32 70//33 69//33 67//32
f 70//33 72//34 71//34 69//33
f 72//34 66//31 65//31 71//34
