# Blender v2.79 (sub 0) OBJ File: 'cubebu3.blend'
# www.blender.org
mtllib 1.mtl
o Cube
v 1.000000 -1.000000 -1.000000
v 1.000000 -1.000000 1.000000
v -1.000000 -1.000000 1.000000
v -1.000000 -1.000000 -1.000000
v 1.000000 1.000000 -0.999999
v 0.999999 1.000000 1.000001
v -1.000000 1.000000 1.000000
v -1.000000 1.000000 -1.000000
vt 0.000000 0.000000
vt 1.000000 0.000000
vt 1.000000 1.000000
vt 0.000000 1.000000
vt 0.000000 0.000000
vt 1.000000 0.000000
vt 1.000000 1.000000
vt 0.000000 1.000000
vt 1.000000 0.000000
vt 1.000000 1.000000
vt 0.000000 1.000000
vt 0.000000 0.000000
vt 1.000000 0.000000
vt 0.000000 1.000000
vt 0.000000 0.000000
vt 1.000000 0.000000
vt 1.000000 1.000000
vt 1.000000 0.000000
vt 1.000000 1.000000
vt 0.000000 1.000000
vn 0.0000 -1.0000 0.0000
vn 0.0000 1.0000 0.0000
vn 1.0000 0.0000 0.0000
vn -0.0000 -0.0000 1.0000
vn -1.0000 -0.0000 -0.0000
vn 0.0000 0.0000 -1.0000
usemtl Material
s off
f 1/1/1 2/2/1 3/3/1 4/4/1
f 5/5/2 8/6/2 7/7/2 6/8/2
f 1/1/3 5/9/3 6/10/3 2/11/3
f 2/12/4 6/13/4 7/7/4 3/14/4
f 3/15/5 7/16/5 8/17/5 4/4/5
f 5/5/6 1/18/6 4/19/6 8/20/6
o Text.007_CUText.007
v 0.068183 -0.361680 -1.068600
v 0.068183 0.360322 -1.068600
v -0.069819 0.360322 -1.068600
v -0.069819 -0.361680 -1.068600
v 0.068183 -0.361680 -1.004600
v 0.068183 0.360322 -1.004600
v -0.069819 0.360322 -1.004600
v -0.069819 -0.361680 -1.004600
v 0.068183 -0.361680 -1.004600
v 0.082183 -0.375680 -1.018600
v 0.068183 0.360322 -1.004600
v 0.082183 0.374322 -1.018600
v -0.069819 0.360322 -1.004600
v -0.083819 0.374322 -1.018600
v -0.069819 -0.361680 -1.004600
v -0.083819 -0.375680 -1.018600
v 0.082183 -0.375680 -1.018600
v 0.082183 -0.375680 -1.054600
v 0.082183 0.374322 -1.018600
v 0.082183 0.374322 -1.054600
v -0.083819 0.374322 -1.018600
v -0.083819 0.374322 -1.054600
v -0.083819 -0.375680 -1.018600
v -0.083819 -0.375680 -1.054600
v 0.082183 -0.375680 -1.054600
v 0.068183 -0.361680 -1.068600
v 0.082183 0.374322 -1.054600
v 0.068183 0.360322 -1.068600
v -0.083819 0.374322 -1.054600
v -0.069819 0.360322 -1.068600
v -0.083819 -0.375680 -1.054600
v -0.069819 -0.361680 -1.068600
vn 0.0000 -0.0000 -1.0000
vn 0.0000 0.0000 1.0000
vn 0.4082 -0.4082 0.8165
vn 0.4082 0.4082 0.8165
vn -0.4082 0.4082 0.8165
vn -0.4082 -0.4082 0.8165
vn 0.7071 -0.7071 0.0000
vn 0.7071 0.7071 0.0000
vn -0.7071 0.7071 0.0000
vn -0.7071 -0.7071 0.0000
vn 0.4082 -0.4082 -0.8165
vn 0.4082 0.4082 -0.8165
vn -0.4082 0.4082 -0.8165
vn -0.4082 -0.4082 -0.8165
usemtl Material.002
s off
f 9//7 11//7 10//7
f 9//7 12//7 11//7
f 15//8 13//8 14//8
f 16//8 13//8 15//8
s 1
f 18//9 20//10 19//10 17//9
f 20//10 22//11 21//11 19//10
f 22//11 24//12 23//12 21//11
f 24//12 18//9 17//9 23//12
f 26//13 28//14 27//14 25//13
f 28//14 30//15 29//15 27//14
f 30//15 32//16 31//16 29//15
f 32//16 26//13 25//13 31//16
f 34//17 36//18 35//18 33//17
f 36//18 38//19 37//19 35//18
f 38//19 40//20 39//20 37//19
f 40//20 34//17 33//17 39//20
o Text.005_CUText.005
v -0.078808 -0.348092 1.064154
v -0.078808 0.373910 1.064154
v 0.059194 0.373910 1.064154
v 0.059194 -0.348092 1.064154
v -0.078808 -0.348092 1.000154
v -0.078808 0.373910 1.000154
v 0.059194 0.373910 1.000154
v 0.059194 -0.348092 1.000154
v -0.078808 -0.348092 1.000154
v -0.092808 -0.362092 1.014154
v -0.078808 0.373910 1.000154
v -0.092808 0.387910 1.014154
v 0.059194 0.373910 1.000154
v 0.073194 0.387910 1.014154
v 0.059194 -0.348092 1.000154
v 0.073194 -0.362092 1.014154
v -0.092808 -0.362092 1.014154
v -0.092808 -0.362092 1.050154
v -0.092808 0.387910 1.014154
v -0.092808 0.387910 1.050154
v 0.073194 0.387910 1.014154
v 0.073194 0.387910 1.050154
v 0.073194 -0.362092 1.014154
v 0.073194 -0.362092 1.050154
v -0.092808 -0.362092 1.050154
v -0.078808 -0.348092 1.064154
v -0.092808 0.387910 1.050154
v -0.078808 0.373910 1.064154
v 0.073194 0.387910 1.050154
v 0.059194 0.373910 1.064154
v 0.073194 -0.362092 1.050154
v 0.059194 -0.348092 1.064154
vn 0.0000 -0.0000 1.0000
vn 0.0000 0.0000 -1.0000
vn -0.4082 -0.4082 -0.8165
vn -0.4082 0.4082 -0.8165
vn 0.4082 0.4082 -0.8165
vn 0.4082 -0.4082 -0.8165
vn -0.7071 -0.7071 0.0000
vn -0.7071 0.7071 0.0000
vn 0.7071 0.7071 0.0000
vn 0.7071 -0.7071 0.0000
vn -0.4082 -0.4082 0.8165
vn -0.4082 0.4082 0.8165
vn 0.4082 0.4082 0.8165
vn 0.4082 -0.4082 0.8165
usemtl Material.002
s off
f 41//21 43//21 42//21
f 41//21 44//21 43//21
f 47//22 45//22 46//22
f 48//22 45//22 47//22
s 1
f 50//23 52//24 51//24 49//23
f 52//24 54//25 53//25 51//24
f 54//25 56//26 55//26 53//25
f 56//26 50//23 49//23 55//26
f 58//27 60//28 59//28 57//27
f 60//28 62//29 61//29 59//28
f 62//29 64//30 63//30 61//29
f 64//30 58//27 57//27 63//30
f 66//31 68//32 67//32 65//31
f 68//32 70//33 69//33 67//32
f 70//33 72//34 71//34 69//33
f 72//34 66//31 65//31 71//34
o Text.003_CUText.003
v -0.065500 1.060825 0.400469
v -0.065500 1.060825 -0.321533
v 0.072502 1.060825 -0.321533
v 0.072502 1.060825 0.400469
v -0.065500 0.996825 0.400469
v -0.065500 0.996825 -0.321533
v 0.072502 0.996825 -0.321533
v 0.072502 0.996825 0.400469
v -0.065500 0.996825 0.400469
v -0.079500 1.010825 0.414469
v -0.065500 0.996825 -0.321533
v -0.079500 1.010825 -0.335533
v 0.072502 0.996825 -0.321533
v 0.086502 1.010825 -0.335533
v 0.072502 0.996825 0.400469
v 0.086502 1.010825 0.414469
v -0.079500 1.010825 0.414469
v -0.079500 1.046825 0.414469
v -0.079500 1.010825 -0.335533
v -0.079500 1.046825 -0.335533
v 0.086502 1.010825 -0.335533
v 0.086502 1.046825 -0.335533
v 0.086502 1.010825 0.414469
v 0.086502 1.046825 0.414469
v -0.079500 1.046825 0.414469
v -0.065500 1.060825 0.400469
v -0.079500 1.046825 -0.335533
v -0.065500 1.060825 -0.321533
v 0.086502 1.046825 -0.335533
v 0.072502 1.060825 -0.321533
v 0.086502 1.046825 0.414469
v 0.072502 1.060825 0.400469
vn 0.0000 1.0000 0.0000
vn 0.0000 -1.0000 0.0000
vn -0.4082 -0.8165 0.4082
vn -0.4082 -0.8165 -0.4082
vn 0.4082 -0.8165 -0.4082
vn 0.4082 -0.8165 0.4082
vn -0.7071 0.0000 0.7071
vn -0.7071 0.0000 -0.7071
vn 0.7071 0.0000 -0.7071
vn 0.7071 0.0000 0.7071
vn -0.4082 0.8165 0.4082
vn -0.4082 0.8165 -0.4082
vn 0.4082 0.8165 -0.4082
vn 0.4082 0.8165 0.4082
usemtl Material.002
s off
f 73//35 75//35 74//35
f 73//35 76//35 75//35
f 79//36 77//36 78//36
f 80//36 77//36 79//36
s 1
f 82//37 84//38 83//38 81//37
f 84//38 86//39 85//39 83//38
f 86//39 88//40 87//40 85//39
f 88//40 82//37 81//37 87//40
f 90//41 92//42 91//42 89//41
f 92//42 94//43 93//43 91//42
f 94//43 96//44 95//44 93//43
f 96//44 90//41 89//41 95//44
f 98//45 100//46 99//46 97//45
f 100//46 102//47 101//47 99//46
f 102//47 104//48 103//48 101//47
f 104//48 98//45 97//45 103//48
o Text.008_CUText.008
v -1.069940 -0.383996 -0.062595
v -1.069940 0.338006 -0.062595
v -1.069940 0.338006 0.075407
v -1.069940 -0.383996 0.075407
v -1.005940 -0.383996 -0.062595
v -1.005940 0.338006 -0.062595
v -1.005940 0.338006 0.075407
v -1.005940 -0.383996 0.075407
v -1.005940 -0.383996 -0.062595
v -1.019940 -0.397996 -0.076595
v -1.005940 0.338006 -0.062595
v -1.019940 0.352006 -0.076595
v -1.005940 0.338006 0.075407
v -1.019940 0.352006 0.089407
v -1.005940 -0.383996 0.075407
v -1.019940 -0.397996 0.089407
v -1.019940 -0.397996 -0.076595
v -1.055940 -0.397996 -0.076595
v -1.019940 0.352006 -0.076595
v -1.055940 0.352006 -0.076595
v -1.019940 0.352006 0.089407
v -1.055940 0.352006 0.089407
v -1.019940 -0.397996 0.089407
v -1.055940 -0.397996 0.089407
v -1.055940 -0.397996 -0.076595
v -1.069940 -0.383996 -0.062595
v -1.055940 0.352006 -0.076595
v -1.069940 0.338006 -0.062595
v -1.055940 0.352006 0.089407
v -1.069940 0.338006 0.075407
v -1.055940 -0.397996 0.089407
v -1.069940 -0.383996 0.075407
vn -1.0000 0.0000 0.0000
vn 1.0000 0.0000 0.0000
vn 0.8165 -0.4082 -0.4082
vn 0.8165 0.4082 -0.4082
vn 0.8165 0.4082 0.4082
vn 0.8165 -0.4082 0.4082
vn 0.0000 -0.7071 -0.7071
vn 0.0000 0.7071 -0.7071
vn 0.0000 0.7071 0.7071
vn 0.0000 -0.7071 0.7071
vn -0.8165 -0.4082 -0.4082
vn -0.8165 0.4082 -0.4082
vn -0.8165 0.4082 0.4082
vn -0.8165 -0.4082 0.4082
usemtl Material.002
s off
f 105//49 107//49 106//49
f 105//49 108//49 107//49
f 111//50 109//50 110//50
f 112//50 109//50 111//50
s 1
f 114//51 116//52 115//52 113//51
f 116//52 118//53 117//53 115//52
f 118//53 120//54 119//54 117//53
f 120//54 114//51 113//51 119//54
f 122//55 124//56 123//56 121//55
f 124//56 126//57 125//57 123//56
f 126//57 128//58 127//58 125//57
f 128//58 122//55 121//55 127//58
f 130//59 132//60 131//60 129//59
f 132//60 134//61 133//61 131//60
f 134//61 136//62 135//62 133//61
f 136//62 130//59 129//59 135//62
o Text.006_CUText.006
v 1.066360 -0.347855 0.073446
v 1.066360 0.374147 0.073446
v 1.066360 0.374147 -0.064556
v 1.066360 -0.347855 -0.064556
v 1.002360 -0.347855 0.073446
v 1.002360 0.374147 0.073446
v 1.002360 0.374147 -0.064556
v 1.002360 -0.347855 -0.064556
v 1.002360 -0.347855 0.073446
v 1.016360 -0.361855 0.087446
v 1.002360 0.374147 0.073446
v 1.016360 0.388147 0.087446
v 1.002360 0.374147 -0.064556
v 1.016360 0.388147 -0.078556
v 1.002360 -0.347855 -0.064556
v 1.016360 -0.361855 -0.078556
v 1.016360 -0.361855 0.087446
v 1.052360 -0.361855 0.087446
v 1.016360 0.388147 0.087446
v 1.052360 0.388147 0.087446
v 1.016360 0.388147 -0.078556
v 1.052360 0.388147 -0.078556
v 1.016360 -0.361855 -0.078556
v 1.052360 -0.361855 -0.078556
v 1.052360 -0.361855 0.087446
v 1.066360 -0.347855 0.073446
v 1.052360 0.388147 0.087446
v 1.066360 0.374147 0.073446
v 1.052360 0.388147 -0.078556
v 1.066360 0.374147 -0.064556
v 1.052360 -0.361855 -0.078556
v 1.066360 -0.347855 -0.064556
vn 1.0000 0.0000 0.0000
vn -1.0000 0.0000 0.0000
vn -0.8165 -0.4082 0.4082
vn -0.8165 0.4082 0.4082
vn -0.8165 0.4082 -0.4082
vn -0.8165 -0.4082 -0.4082
vn 0.0000 -0.7071 0.7071
vn 0.0000 0.7071 0.7071
vn 0.0000 0.7071 -0.7071
vn 0.0000 -0.7071 -0.7071
vn 0.8165 -0.4082 0.4082
vn 0.8165 0.4082 0.4082
vn 0.8165 0.4082 -0.4082
vn 0.8165 -0.4082 -0.4082
usemtl Material.002
s off
f 137//63 139//63 138//63
f 137//63 140//63 139//63
f 143//64 141//64 142//64
f 144//64 141//64 143//64
s 1
f 146//65 148//66 147//66 145//65
f 148//66 150//67 149//67 147//66
f 150//67 152//68 151//68 149//67
f 152//68 146//65 145//65 151//68
f 154//69 156//70 155//70 153//69
f 156//70 158//71 157//71 155//70
f 158//71 160//72 159//72 157//71
f 160//72 154//69 153//69 159//72
f 162//73 164//74 163//74 161//73
f 164//74 166//75 165//75 163//74
f 166//75 168//76 167//76 165//75
f 168//76 162//73 161//73 167//76
o Text.004_CUText.004
v -0.053726 -1.053724 -0.361117
v -0.053726 -1.053724 0.360885
v 0.084276 -1.053724 0.360885
v 0.084276 -1.053724 -0.361117
v -0.053726 -0.989724 -0.361117
v -0.053726 -0.989724 0.360885
v 0.084276 -0.989724 0.360885
v 0.084276 -0.989724 -0.361117
v -0.053726 -0.989724 -0.361117
v -0.067726 -1.003724 -0.375117
v -0.053726 -0.989724 0.360885
v -0.067726 -1.003724 0.374885
v 0.084276 -0.989724 0.360885
v 0.098276 -1.003724 0.374885
v 0.084276 -0.989724 -0.361117
v 0.098276 -1.003724 -0.375117
v -0.067726 -1.003724 -0.375117
v -0.067726 -1.039724 -0.375117
v -0.067726 -1.003724 0.374885
v -0.067726 -1.039724 0.374885
v 0.098276 -1.003724 0.374885
v 0.098276 -1.039724 0.374885
v 0.098276 -1.003724 -0.375117
v 0.098276 -1.039724 -0.375117
v -0.067726 -1.039724 -0.375117
v -0.053726 -1.053724 -0.361117
v -0.067726 -1.039724 0.374885
v -0.053726 -1.053724 0.360885
v 0.098276 -1.039724 0.374885
v 0.084276 -1.053724 0.360885
v 0.098276 -1.039724 -0.375117
v 0.084276 -1.053724 -0.361117
vn 0.0000 -1.0000 0.0000
vn 0.0000 1.0000 0.0000
vn -0.4082 0.8165 -0.4082
vn -0.4082 0.8165 0.4082
vn 0.4082 0.8165 0.4082
vn 0.4082 0.8165 -0.4082
vn -0.7071 0.0000 -0.7071
vn -0.7071 0.0000 0.7071
vn 0.7071 0.0000 0.7071
vn 0.7071 0.0000 -0.7071
vn -0.4082 -0.8165 -0.4082
vn -0.4082 -0.8165 0.4082
vn 0.4082 -0.8165 0.4082
vn 0.4082 -0.8165 -0.4082
usemtl Material.002
s off
f 169//77 171//77 170//77
f 169//77 172//77 171//77
f 175//78 173//78 174//78
f 176//78 173//78 175//78
s 1
f 178//79 180//80 179//80 177//79
f 180//80 182//81 181//81 179//80
f 182//81 184//82 183//82 181//81
f 184//82 178//79 177//79 183//82
f 186//83 188//84 187//84 185//83
f 188//84 190//85 189//85 187//84
f 190//85 192//86 191//86 189//85
f 192//86 186//83 185//83 191//86
f 194//87 196//88 195//88 193//87
f 196//88 198//89 197//89 195//88
f 198//89 200//90 199//90 197//89
f 200//90 194//87 193//87 199//90
o Text.002
v -0.072952 0.394256 -1.078595
v -0.072952 -0.372305 -1.078595
v 0.062890 -0.372305 -1.078595
v 0.062890 0.394256 -1.078595
v -0.072952 0.394256 -1.006595
v -0.072952 -0.372305 -1.006595
v 0.062890 -0.372305 -1.006595
v 0.062890 0.394256 -1.006595
v -0.072952 0.394256 -1.006595
v -0.087952 0.409256 -1.021595
v -0.072952 -0.372305 -1.006595
v -0.087952 -0.387305 -1.021595
v 0.062890 -0.372305 -1.006595
v 0.077890 -0.387305 -1.021595
v 0.062890 0.394256 -1.006595
v 0.077890 0.409256 -1.021595
v -0.087952 0.409256 -1.021595
v -0.087952 0.409256 -1.063595
v -0.087952 -0.387305 -1.021595
v -0.087952 -0.387305 -1.063595
v 0.077890 -0.387305 -1.021595
v 0.077890 -0.387305 -1.063595
v 0.077890 0.409256 -1.021595
v 0.077890 0.409256 -1.063595
v -0.087952 0.409256 -1.063595
v -0.072952 0.394256 -1.078595
v -0.087952 -0.387305 -1.063595
v -0.072952 -0.372305 -1.078595
v 0.077890 -0.387305 -1.063595
v 0.062890 -0.372305 -1.078595
v 0.077890 0.409256 -1.063595
v 0.062890 0.394256 -1.078595
vn 0.0000 0.0000 -1.0000
vn 0.0000 0.0000 1.0000
vn -0.4082 0.4082 0.8165
vn -0.4082 -0.4082 0.8165
vn 0.4082 -0.4082 0.8165
vn 0.4082 0.4082 0.8165
vn -0.7071 0.7071 0.0000
vn -0.7071 -0.7071 0.0000
vn 0.7071 -0.7071 0.0000
vn 0.7071 0.7071 0.0000
vn -0.4082 0.4082 -0.8165
vn -0.4082 -0.4082 -0.8165
vn 0.4082 -0.4082 -0.8165
vn 0.4082 0.4082 -0.8165
usemtl Material.001
s off
f 201//91 203//91 202//91
f 201//91 204//91 203//91
f 207//92 205//92 206//92
f 208//92 205//92 207//92
s 1
f 210//93 212//94 211//94 209//93
f 212//94 214//95 213//95 211//94
f 214//95 216//96 215//96 213//95
f 216//96 210//93 209//93 215//96
f 218//97 220//98 219//98 217//97
f 220//98 222//99 221//99 219//98
f 222//99 224//100 223//100 221//99
f 224//100 218//97 217//97 223//100
f 226//101 228//102 227//102 225//101
f 228//102 230//103 229//103 227//102
f 230//103 232//104 231//104 229//103
f 232//104 226//101 225//101 231//104
o Text.001
v -0.075106 -0.338594 1.074792
v -0.075106 0.427967 1.074792
v 0.060735 0.427967 1.074792
v 0.060735 -0.338594 1.074792
v -0.075106 -0.338594 1.002792
v -0.075106 0.427967 1.002792
v 0.060735 0.427967 1.002792
v 0.060735 -0.338594 1.002792
v -0.075106 -0.338594 1.002792
v -0.090106 -0.353594 1.017792
v -0.075106 0.427967 1.002792
v -0.090106 0.442967 1.017792
v 0.060735 0.427967 1.002792
v 0.075735 0.442967 1.017792
v 0.060735 -0.338594 1.002792
v 0.075735 -0.353594 1.017792
v -0.090106 -0.353594 1.017792
v -0.090106 -0.353594 1.059792
v -0.090106 0.442967 1.017792
v -0.090106 0.442967 1.059792
v 0.075735 0.442967 1.017792
v 0.075735 0.442967 1.059792
v 0.075735 -0.353594 1.017792
v 0.075735 -0.353594 1.059792
v -0.090106 -0.353594 1.059792
v -0.075106 -0.338594 1.074792
v -0.090106 0.442967 1.059792
v -0.075106 0.427967 1.074792
v 0.075735 0.442967 1.059792
v 0.060735 0.427967 1.074792
v 0.075735 -0.353594 1.059792
v 0.060735 -0.338594 1.074792
vn 0.0000 0.0000 1.0000
vn 0.0000 0.0000 -1.0000
vn -0.4082 -0.4082 -0.8165
vn -0.4082 0.4082 -0.8165
vn 0.4082 0.4082 -0.8165
vn 0.4082 -0.4082 -0.8165
vn -0.7071 -0.7071 0.0000
vn -0.7071 0.7071 0.0000
vn 0.7071 0.7071 0.0000
vn 0.7071 -0.7071 0.0000
vn -0.4082 -0.4082 0.8165
vn -0.4082 0.4082 0.8165
vn 0.4082 0.4082 0.8165
vn 0.4082 -0.4082 0.8165
usemtl Material.001
s off
f 233//105 235//105 234//105
f 233//105 236//105 235//105
f 239//106 237//106 238//106
f 240//106 237//106 239//106
s 1
f 242//107 244//108 243//108 241//107
f 244//108 246//109 245//109 243//108
f 246//109 248//110 247//110 245//109
f 248//110 242//107 241//107 247//110
f 250//111 252//112 251//112 249//111
f 252//112 254//113 253//113 251//112
f 254//113 256//114 255//114 253//113
f 256//114 250//111 249//111 255//114
f 258//115 260//116 259//116 257//115
f 260//116 262//117 261//117 259//116
f 262//117 264//118 263//118 261//117
f 264//118 258//115 257//115 263//118
o Text
v -0.069609 1.049550 0.397763
v -0.069609 1.049550 -0.368798
v 0.066233 1.049550 -0.368798
v 0.066233 1.049550 0.397763
v -0.069609 0.977550 0.397763
v -0.069609 0.977550 -0.368798
v 0.066233 0.977550 -0.368798
v 0.066233 0.977550 0.397763
v -0.069609 0.977550 0.397763
v -0.084609 0.992550 0.412763
v -0.069609 0.977550 -0.368798
v -0.084609 0.992550 -0.383798
v 0.066233 0.977550 -0.368798
v 0.081233 0.992550 -0.383798
v 0.066233 0.977550 0.397763
v 0.081233 0.992550 0.412763
v -0.084609 0.992550 0.412763
v -0.084609 1.034550 0.412763
v -0.084609 0.992550 -0.383798
v -0.084609 1.034550 -0.383798
v 0.081233 0.992550 -0.383798
v 0.081233 1.034550 -0.383798
v 0.081233 0.992550 0.412763
v 0.081233 1.034550 0.412763
v -0.084609 1.034550 0.412763
v -0.069609 1.049550 0.397763
v -0.084609 1.034550 -0.383798
v -0.069609 1.049550 -0.368798
v 0.081233 1.034550 -0.383798
v 0.066233 1.049550 -0.368798
v 0.081233 1.034550 0.412763
v 0.066233 1.049550 0.397763
vn 0.0000 1.0000 0.0000
vn 0.0000 -1.0000 0.0000
vn -0.4082 -0.8165 0.4082
vn -0.4082 -0.8165 -0.4082
vn 0.4082 -0.8165 -0.4082
vn 0.4082 -0.8165 0.4082
vn -0.7071 0.0000 0.7071
vn -0.7071 0.0000 -0.7071
vn 0.7071 0.0000 -0.7071
vn 0.7071 0.0000 0.7071
vn -0.4082 0.8165 0.4082
vn -0.4082 0.8165 -0.4082
vn 0.4082 0.8165 -0.4082
vn 0.4082 0.8165 0.4082
usemtl Material
s off
f 265//119 267//119 266//119
f 265//119 268//119 267//119
f 271//120 269//120 270//120
f 272//120 269//120 271//120
s 1
f 274//121 276//122 275//122 273//121
f 276//122 278//123 277//123 275//122
f 278//123 280//124 279//124 277//123
f 280//124 274//121 273//121 279//124
f 282//125 284//126 283//126 281//125
f 284//126 286//127 285//127 283//126
f 286//127 288//128 287//128 285//127
f 288//128 282//125 281//125 287//128
f 290//129 292//130 291//130 289//129
f 292//130 294//131 293//131 291//130
f 294//131 296//132 295//132 293//131
f 296//132 290//129 289//129 295//132
